/* XPM */
static char *_a6a002567d94fdae384421cb9108db3O8Q8GPfnlRaUIJLe[] = {
/* columns rows colors chars-per-pixel */
"64 64 11 1 ",
"  c black",
". c #F20938",
"X c #ED173B",
"o c #EBC117",
"O c #968A8A",
"+ c gray70",
"@ c #85FFF9",
"# c gray82",
"$ c gray92",
"% c #FFF7FF",
"& c white",
/* pixels */
"                                                                ",
"                                                                ",
"        +++++++++++++++++++++++++++++++++++++++++++++++         ",
"++++++++%%%%%%%%%%%%%%%%%%%%%%%%%%%%%%%%%%%%%%%%%%%%%%%+++++++++",
"########%%%%%%%%%%%%%%%%%%%%%%%%%%%%%%%%%%%%%%%%%%%%%%%#########",
"########%%...........................................%%#########",
"########%%...XXXXXXXXXXXXXXXXXXXXXXXXXXXXXXXXXXXXX...%%#########",
"########%%...XXXXXXXXXXXXXXXXXXXXXXXXXXXXXXXX&&&XX...%%#########",
"########%%...XXXXXXXXXXXXXXXXXXXXXXXXXXXXXX&&&&&&&...%%#########",
"########%%...&&XX&&&X&&&XXX&&XX&XXXX&&&&XXX&X&&X&&...%%#########",
"########%%..&XX&XX&XX&XX&X&XX&X&XXXX&XXXXX&&X&X&&&&..%%#########",
"########%%..&XXXXX&XX&&&XX&XXXX&XXXX&&&XXX&&XX&&&&&..%%#########",
"########%%..&XX&XX&XX&X&XX&XX&X&XXXX&XXXXX&&X&X&&&&..%%#########",
"########%%...&&XX&&&X&XX&XX&&XX&&&&X&&&&XXX&X&&X&&...%%#########",
"########%%...XXXXXXXXXXXXXXXXXXXXXXXXXXXXXX&&&&&X&...%%#########",
"########%%...XXXXXXXXXXXXXXXXXXXXXXXXXXXXXXXX&&&XX...%%#########",
"########%%...XXXXXXXXXXXXXXXXXXXXXXXXXXXXXXXXXXXXX...%%#########",
"########%%&&&&&&&&&&&&&&&&&&&&&&&&&&&&&&&&&&&&&&&&&&&%%#########",
"########%%ooooooooooooooooooooooooooooooooooooooooooo%%#########",
"########%%ooooooooooooooooooooooooooooooooooooooooooo%%#########",
"########%%%%%%%%%%%%%%%%%%%%%%%%%%%%%%%%%%%%%%%%%%%%%%%#########",
"########%%%%%%%%%%%%%%%%%%%%%%%%%%%%%%%%%%%%%%%%%%%%%%%#########",
"########+++++++++++++++++++++++++++++++++++++++++++++++#########",
"#####&&&&&&&&&&&&&&&&&&&&&&&&&&&&&&&&&&&&&&&&&&&&&&&&&&&&&&#####",
"#####&&&&&&&&&&&&&&&&&&&&&&&&&&&&&&&&&&&&&&&&&&&&&&&&&&&&&&#####",
"#####&&&&&&&&&&&&&&&&&&&&&&&&&&&&&&&&&&&&&&&&&&&&&&&&&&&&&&#####",
"#####&&&&&&&&&&&&&&&&&&&&&&&&&&&&&&&&&&&&&&&&&&&&&&&&&&&&&&#####",
"$$$$$&OOOOOOO&OOOOOO&OOOOOOOOOOOOOOOOOOOOOO&OOOOOO&OOOOOOO&$$$$$",
"$$$$$&O@@@@@O&O@@&@O&O@@@@@@@@@@@@@@@@@@@@O&O@@@&O&O@@@@@O&$$$$$",
"$$$$$&O@@@@@O&O@@&@O&O@@@@@@&@@@@@@&&@@@@@O&O@@&&O&O@@@@@O&$$$$$",
"$$$$$&O@@&@@O&O@&@@O&O@@@@@&&@@@@@&&@@@@@@O&O@@&@O&O@@@@@O&$$$$$",
"$$$$$&O@@&@@O&O@&@@O&O@@@@&&@@@@@&&@@@@@@@O&O@&&@O&O@@@&@O&$$$$$",
"$$$$$&O@&&@@O&O&@@@O&O@@@@&@@@@@@&&@@@@@@@O&O@&@@O&O@@&&@O&$$$$$",
"$$$$$&O@&&@@O&O@@@@O&O@@@&@@@@@@&&@@@@@@@@O&O@@@@O&O@@&@@O&$$$$$",
"$$$$$&O&&@@@O&O@@@@O&O@@&&@@@@@&&@@@@@@@@@O&O@@@@O&O@&&@@O&$$$$$",
"$$$$$&O&&@@@O&O@@@@O&O@&&@@@@@@@@@@@@@@@@@O&O@@@@O&O&&@@@O&$$$$$",
"$$$$$&O&@@@@O&OOOOOO&OOOOOOOOOOOOOOOOOOOOOO&OOOOOO&O&@@@@O&$$$$$",
"$$$$$&O&@@@@O&&&&&&&&&&&&&&&&&&&&&&&&&&&&&&&&&&&&&&O@@@@@O&$$$$$",
"$$$$$&O@@&@@O&OOOOOO&OOOOOOOOOO&&OOOOOOOOOO&OOOOOO&O@@@&@O&$$$$$",
"$$$$$&O@@&@@O&O@@@&O&O@@@@@@@@O&&O@@@@@@@@O&O@@@@O&O@@&&@O&$$$$$",
"$$$$$&O@&&@@O&O@@@&O&O@@@@@@&@O&&O@@@@@@&@O&O@@@@O&O@@&@@O&$$$$$",
"$$$$$&O@&&@@O&O@@&&O&O@@@@@@&@O&&O@@@@@&&@O&O@@@@O&O@&&@@O&$$$$$",
"$$$$$&O&&@@@O&O@@&&O&O@@@@@&&@O&&O@@@@@&@@O&O@@&@O&O&&@@@O&$$$$$",
"$$$$$&O&&@@@O&O@&&@O&O@@@@@&@@O&&O@@@@&&@@O&O@@&@O&O&@@@@O&$$$$$",
"$$$$$&O&@@@@O&O@&&@O&O@@@@&&@@O&&O@@@&&@@@O&O@&&@O&O@@@@@O&$$$$$",
"$$$$$&OOOOOOO&O&&@@O&O@@@@&@@@O&&O@@@&@@@@O&O@&@@O&OOOOOOO&$$$$$",
"$$$$$&&&&&&&&&O&&@@O&O@@@&&@@@O&&O@@&&@@@@O&O&&@@O&&&&&&&&&$$$$$",
"$$$$$&&&&&&&&&O&@@@O&O@@@&@@@@O&&O@&&@@@@@O&O&@@@O&&&&&&&&&$$$$$",
"$$$$$&&&&&&&&&O@@@@O&O@@&&@@@@O&&O@&@@@@@@O&O@@@@O&&&&&&&&&$$$$$",
"$$$$$&&&&&&&&&O@@@@O&O@@&@@@@@O&&O&&@@@@@@O&O@@@@O&&&&&&&&&$$$$$",
"$$$$$&&&&&&&&&O@@@@O&O@@&@@@@@O&&O&@@@@@@@O&O@@@@O&&&&&&&&&$$$$$",
"$$$$$&&&&&&&&&O@@@@O&O@&@@@@@@O&&O@@@@@&&@O&O@@@@O&&&&&&&&&$$$$$",
"$$$$$&&&&&&&&&O@@&@O&O@@@@@@@@O&&O@@@@&&@@O&O@@@@O&&&&&&&&&$$$$$",
"$$$$$&&&&&&&&&O@@&@O&O@@@@@&&@O&&O@@@&&@@@O&O@@@@O&&&&&&&&&$$$$$",
"$$$$$&&&&&&&&&O@&&@O&O@@@@&&@@O&&O@@@&&@@@O&O@@@@O&&&&&&&&&$$$$$",
"$$$$$&&&&&&&&&O@&@@O&O@@@@&&@@O&&O@@&&@@@@O&O@@@@O&&&&&&&&&$$$$$",
"$$$$$&&&&&&&&&O&&@@O&O@@@&&@@@O&&O@&&@@@@@O&O@@@@O&&&&&&&&&$$$$$",
"$$$$$&&&&&&&&&O&@@@O&O@@@&&@@@O&&O@@@@@@@@O&O@@@@O&&&&&&&&&$$$$$",
"$$$$$&&&&&&&&&O@@@@O&O@@&&@@@@O&&O@@@@@@@@O&O@@@@O&&&&&&&&&$$$$$",
"$$$$$&&&&&&&&&O@@@@O&O@@@@@@@@O&&O@@@@@@@@O&O@@@@O&&&&&&&&&$$$$$",
"$$$$$&&&&&&&&&O@@@@O&O@@@@@@@@O&&O@@@@@@@@O&O@@@@O&&&&&&&&&$$$$$",
"$$$$$&&&&&&&&&OOOOOO&OOOOOOOOOO&&OOOOOOOOOO&OOOOOO&&&&&&&&&$$$$$",
"$$$$$&&&&&&&&&&&&&&&&&&&&&&&&&&&&&&&&&&&&&&&&&&&&&&&&&&&&&&$$$$$",
"$$$$$&&&&&&&&&&&&&&&&&&&&&&&&&&&&&&&&&&&&&&&&&&&&&&&&&&&&&&$$$$$"
};
