/* XPM */
static char *_f458d804abd40179ce6eb3c987a0d836GFGND0bMXeGDVbL[] = {
/* columns rows colors chars-per-pixel */
"64 64 3 1 ",
"  c gray75",
". c #E6E5DF",
"X c white",
/* pixels */
"XXXXXXXXXXXXXXXXXXXXXXXXXXXXXXXXXXXXXXXXXXXXXXXXXXXXXXXXXXXXXXXX",
"...............X..........................X.....................",
"...............X..........................X.....................",
"...............X..........................X.....................",
"...............X..........................X.....................",
"...............X..........................X.....................",
"...............X..........................X.....................",
"...............X..........................X.....................",
"...............X..........................X.....................",
"...............X..........................X.....................",
"...............X..........................X.....................",
"...............X..........................X.....................",
"...............X..........................X.....................",
"...............X..........................X.....................",
"...............X..........................X.....................",
"...............X..........................X.....................",
"XXXXXXXXXXXXXXXXXXXXXXXXXXXXXXXXXXXXXXXXXXXXXXXXXXXXXXXXXXXXXXXX",
"....................X                          X................",
"....................X                          X................",
"....................X                          X................",
"....................X                          X................",
"....................X                          X................",
"....................X                          X................",
"....................X                          X................",
"....................X                          X................",
"....................X                          X................",
"....................X                          X................",
"....................X                          X................",
"....................X                          X................",
"....................X                          X................",
"....................X                          X................",
"....................X                          X................",
"XXXXXXXXXXXXXXXXXXXXXXXXXXXXXXXXXXXXXXXXXXXXXXXXXXXXXXXXXXXXXXXX",
"...............X..........................X.....................",
"...............X..........................X.....................",
"...............X..........................X.....................",
"...............X..........................X.....................",
"...............X..........................X.....................",
"...............X..........................X.....................",
"...............X..........................X.....................",
"...............X..........................X.....................",
"...............X..........................X.....................",
"...............X..........................X.....................",
"...............X..........................X.....................",
"...............X..........................X.....................",
"...............X..........................X.....................",
"...............X..........................X.....................",
"...............X..........................X.....................",
"XXXXXXXXXXXXXXXXXXXXXXXXXXXXXXXXXXXXXXXXXXXXXXXXXXXXXXXXXXXXXXXX",
"....................X                          X................",
"....................X                          X................",
"....................X                          X................",
"....................X                          X................",
"....................X                          X................",
"....................X                          X................",
"....................X                          X................",
"....................X                          X................",
"....................X                          X................",
"....................X                          X................",
"....................X                          X................",
"....................X                          X................",
"....................X                          X................",
"....................X                          X................",
"....................X                          X................"
};
