/* XPM */
static char *_50b534588864dd482c2103a8dc2f81ezU4l8FV9ZdoCrD3s[] = {
/* columns rows colors chars-per-pixel */
"64 64 10 1 ",
"  c black",
". c #14660B",
"X c #F00058",
"o c #2A914E",
"O c #36D64E",
"+ c DarkOrange",
"@ c #A5F6FA",
"# c gray92",
"$ c gray96",
"% c white",
/* pixels */
"                                                                ",
" ooooo oooo oooo oooo oooo oooo oooo oooo oooo oooo oooo oooo o ",
" ooooo oooo oooo oooo oooo oooo oooo oooo oooo oooo oooo oooo o ",
" ooooo oooo oooo oooo oooo oooo oooo oooo oooo oooo oooo oooo o ",
" ooooo oooo oooo oooo oooo oooo oooo oooo oooo oooo oooo oooo o ",
" ooooo oooo oooo oooo oooo oooo oooo oooo oooo oooo oooo oooo o ",
" ooooo oooo oooo oooo oooo oooo oooo oooo oooo oooo oooo oooo o ",
" ooooo oooo oooo oooo oooo oooo oooo oooo oooo oooo oooo oooo o ",
" ooooo oooo oooo oooo oooo oooo oooo oooo oooo oooo oooo oooo o ",
" ooooo oooo oooo oooo oooo oooo oooo oooo oooo oooo oooo oooo o ",
" ooooo oooo oooo oooo oooo oooo oooo oooo oooo oooo oooo oooo o ",
" ooooo oooo oooo oooo oooo oooo oooo oooo oooo oooo oooo oooo o ",
" ooo                o oo           o oo     oo oo           o o ",
" ooooo oooo oooo oooo oooo oooo oooo oooo oooo oooo oooo oooo o ",
" ooooo oooo oooo oooo oooo oooo oooo oooo oooo oooo oooo oooo o ",
" ooooo oooo oooo oooo oooo oooo oooo oooo oooo oooo oooo oooo o ",
"  oooo oooo oooo oooo oooo oooo oooo oooo oooo oooo oooo oooo o ",
" # oo # oo # oo # oo # oo # oo # oo # oo # oo # oo # oo # oo #  ",
" ##  ###  ###  ###  ###  ###  ###  ###  ###  ###  ###  ###  ### ",
" ############################################################## ",
" ############################################################## ",
" ############################################################## ",
" ############################################################## ",
" ############################################################## ",
" ############################################################## ",
" $$$$$$$$$$$$$$$$$$$$$$$$$$$$$$$$$$$$$$$$$$$$$$$$$$$$$$$$$$$$$$ ",
" $$$$$$$$$$$$$$$$$$$$$$$$$$$$$$$$$$$$$$$$$$$$$$$$$$$$$$$$$$$$$$ ",
" $$$$$$$$$$$$$$$$$$$$$$$$$$$$$$$$$$$$$$$$$$$$$$$$$$$$$$$$$$$$$$ ",
" $$$$$$$$$$$$$$$$$$$$$$$$$$$$$$$$$$$$$$$$$$$$$$$$$$$$$$$$$$$$$$ ",
" $$$$$$$$$$$$$$$$$$$$$$$$$$$$$$$$$$$$$$$$$$$$$$$$$$$$$$$$$$$$$$ ",
" $$$$$$$$$$$$$$$$$$$$$$$$$$$$$$$$$$$$$$$$$$$$$$$$$$$$$$$$$$$$$$ ",
" $$$$$$$$$$$$$$$$$$$$$$$$$$$$$$$$$$$$$$$$$$$$$$$$$$$$$$$$$$$$$$ ",
" $$$$$$$$$$$$$$$$$$$$$$$$$$$$$$$$$$$$$$$$$$$$$$$$$$$$$$$$$$$$$$ ",
" $$$$$$$$$$$$$$$$$$$$$$$$$$$$$$$$$$                         $$$ ",
" $$$$$$$$$$$$$$$$$$$$$$$$$$$$$$$$$$ @@@@@@@@@@@ @@@@@@@@@@@ $$$ ",
" $$$$$$$$$$$$$$$$$$$$$$$$$$$$$$$$$$ @@@@@@%%@@@ @@@@@@@@@@@ $$$ ",
" $$$$                        $$$$$$ @@@@@%%@@@@ @@@@@@@@%@@ $$$ ",
" $$$$ @@@@@@@@@@@@@@@@@@@@@@ $$$$$$ @@@@%%@@@@@ @@@@@@@%%@@ $$$ ",
" $$$$ @@@@@@@@@@@@@@@@@@@@@@ $$$$$$ @@@%%@@@@@@ @@@@@@%%@@@ $$$ ",
" $$$$ @@@@@@@@@@@@@@@@@@@@@@ $$$$$$ @@%%@@@@@@@ @@@@@@%%@@@ $$$ ",
" $$$$ @@@@@@@@@@@@@@@@@@@@@@ $$$$$$ @%%@@@@@%%@ @@@@@%%@@@@ $$$ ",
" $$$$ @@@         @@@@@@@%%@ $$$$$$ @@@@@@@%%@@ @@@@%%@@@@@ $$$ ",
" $$$$ @@@ OOOOOOO @@@@@@%%@@ $$$$$$ @@@@@@%%@@@ @@@%%@@@@@@ $$$ ",
" $$$$ @@@ OOOOOOO @@@@@%%@@@ $$$$$$ @@@@@%%@@@@ @@@%%@@@@@@ $$$ ",
" $$$$ @@@ OOOOOOO @@@@%%@@@@ $$$$$$ @@@@%%@@@@@ @@%%@@@@@@@ $$$ ",
" $$$$ @@@ O....OO @@@%%@@@@% $$$$$$ @@@%%@@@@@@ @%%@@@@@@@@ $$$ ",
" $$$$ @@@ OOOOOOO @@%%@@@@%% $$$$$$                         $$$ ",
" $$$$ @@@ O.....O @@@@@@@%%% $$$$$$ %%% %%%%%%% %%%%%%%%%%% $$$ ",
" $$$$ @@@ OOOOOOO @@@@@@%%%@ $$$$$$ +++ %++++X% +++++++++++ $$$ ",
" $$$$ @@@         @@@@%%%%@@ $$$$$$ %%% %+++XX% %%%%%%%%%%% $$$ ",
" $$$$ @@@%%@@@@%%@@@@%%%%@@@ $$$$$$ ooo %%%%XX% ooooooooooo $$$ ",
" $$$$ @@%%@@@@%%@@@@%%%%@@@@ $$$$$$ %%% %%%XX%% %%%%%%%%%%% $$$ ",
" $$$$ @%%@@@@%%@@@@%%%@@@@@@ $$$$$$ XXX %%XX%%% XXXXXXXXXXX $$$ ",
" $$$$ @@@@@@%%@@@@%%%@@@@@@@ $$$$$$ %%% %%XX%%% %%%%%%%%%%% $$$ ",
" $$$$ @@@@%%%@@@@%%%@@@@@@@@ $$$$$$                         $$$ ",
" $$$$ @@@%%@@@@@%%%@@@@@@@@@ $$$$$$ @@@@@@@@%%@ @@@@@@@%%@@ $$$ ",
" $$$$ @@%%@@@@@%%%@@@@@@@@@@ $$$$$$ @@@@@@@%%@@ @@@@@@%%@@@ $$$ ",
" $$$$ @%%@@@@@%%%@@@@@@@@@@@ $$$$$$ @@@@@@%%@@@ @@@@@%%@@@@ $$$ ",
" $$$$ @%@@@@%%%%@@@@@@@@@@@@ $$$$$$ @@@@@%%@@@@ @@@@@%%@@@@ $$$ ",
" $$$$ @@@@@%%%@@@@@@@@@@@@@@ $$$$$$ @@@@%%@@@@@ @@@@%%@@@@@ $$$ ",
" $$$$ @@@@%%%@@@@@@@@@@@@@@@ $$$$$$ @@@%%@@@@@@ @@@%%@@@@@@ $$$ ",
" $$$$ @@@%%%@@@@@@@@@@@@@@@@ $$$$$$ @@%%@@@@@@@ @@%%@@@@@@@ $$$ ",
" $$$$ @@%%%@@@@@@@@@@@@@@@@@ $$$$$$ @@@@@@@@@@@ @@@@@@@@@@@ $$$ ",
"                                                                "
};
